<svg width="100" height="100" viewBox="0 0 100 100" fill="none" xmlns="http://www.w3.org/2000/svg">
<g clip-path="url(#clip0_726_2145)">
<path fill-rule="evenodd" clip-rule="evenodd" d="M25.9682 19.6316C13.0894 22.4092 8.59081 42.5598 18.8 50.6074C26.1168 44.1055 34.0109 32.5729 39.024 21.8844C36.5488 17.3045 35.64 12.7303 38.1437 7.81368C40.7447 2.70899 31.0613 -2.53261 27.8601 2.83457C25.0992 8.50977 24.6476 14.1334 25.9682 19.6316Z" fill="url(#paint0_linear_726_2145)"/>
<path fill-rule="evenodd" clip-rule="evenodd" d="M77.0708 12.5078C61.3112 15.1371 51.4849 35.0994 72.5778 42.9932C75.9446 44.2479 80.1005 45.2004 85.1421 45.7252C84.0618 42.343 82.4784 39.092 80.4376 35.9721C77.7909 31.9227 74.83 28.6887 71.6745 26.1734C73.3665 24.6791 75.47 23.4814 78.0538 21.8217C80.0487 20.5041 79.8544 18.0973 78.9628 16.3121L77.0708 12.5078Z" fill="#FF3D3D"/>
<path fill-rule="evenodd" clip-rule="evenodd" d="M22.1551 39.2346C20.4002 42.7992 19.2226 46.6434 18.7996 50.6074C18.2166 56.0258 19.0396 61.6779 21.7148 67.1818C26.5451 77.123 37.0287 87.5947 48.6269 96.1443C52.1252 98.7223 55.4865 99.9543 58.6074 100H58.9388C62.6886 99.9486 66.0785 98.1635 68.9365 94.901C85.3763 76.1135 89.6236 59.7844 85.142 45.7252C80.1002 45.2004 75.9445 44.248 72.5777 42.9932C71.1029 42.4398 69.7767 41.8297 68.5935 41.168C52.8853 32.3902 62.4142 14.9545 77.0707 12.5078L81.8437 11.1732C83.5472 10.6941 84.6504 9.55918 83.9472 7.41465L82.2666 2.29297C81.8156 0.906836 80.9123 0.0341797 79.649 0H79.3633C68.8568 0.102734 54.9492 7.78535 46.7008 17.2875C45.1402 19.0842 44.8658 19.4605 43.048 20.1164C41.6818 20.6068 40.3384 21.2 39.0238 21.8846C31.9756 25.5461 25.8134 31.7857 22.1551 39.2346Z" fill="url(#paint1_linear_726_2145)"/>
<path fill-rule="evenodd" clip-rule="evenodd" d="M70.8001 9.62756C54.6231 15.4965 47.1749 36.2688 62.8831 46.0561C64.0663 46.7918 65.3925 47.4762 66.8673 48.0922C67.5018 48.3545 68.1649 48.6055 68.8509 48.8451C71.829 49.8776 75.3388 50.6645 79.4315 51.1436C83.913 66.8168 72.0405 78.6459 55.5948 99.6008C56.6237 99.8574 57.6241 99.9887 58.6073 100H58.9388C62.6886 99.9487 66.0784 98.1635 68.9364 94.901C85.3763 76.1135 89.6235 59.7844 85.1419 45.7252C80.1001 45.2004 75.9444 44.2481 72.5776 42.9932C71.1028 42.4399 69.7767 41.8297 68.5935 41.168C52.8852 32.3903 62.4142 14.9545 77.0706 12.5078L81.8437 11.1733C83.5472 10.6942 84.6503 9.5592 83.9472 7.41467L83.4671 5.94885C83.2727 6.04573 83.0669 6.12561 82.8497 6.18831L70.8001 9.62756Z" fill="#FF5F5F"/>
<g filter="url(#filter0_b_726_2145)">
<path d="M28.5638 78.0281C28.4224 78.0281 28.2786 78.008 28.136 77.966C27.3366 77.7301 26.8798 76.8908 27.1159 76.0914C30.4827 64.6844 40.5563 55.609 52.1833 53.5084C53.003 53.3603 53.7884 53.9051 53.9366 54.725C54.0849 55.5451 53.5399 56.3301 52.7198 56.4783C42.1884 58.3811 33.0624 66.606 30.0108 76.9455C29.8167 77.6025 29.2155 78.0281 28.5638 78.0281Z" fill="white" fill-opacity="0.2"/>
</g>
<g filter="url(#filter1_b_726_2145)">
<path d="M41.2189 61.1053C40.3932 61.1053 39.7193 60.4402 39.7104 59.6125C39.6516 54.1258 33.5695 48.1013 28.0891 48.1013C27.2555 48.1013 26.5801 47.4258 26.5801 46.5924C26.5801 45.759 27.2557 45.0834 28.0891 45.0834C31.4523 45.0834 35.066 46.7334 38.0035 49.6101C40.9693 52.5144 42.6914 56.1484 42.7283 59.5802C42.7371 60.4136 42.0689 61.0965 41.2354 61.1054C41.2299 61.1052 41.2244 61.1053 41.2189 61.1053Z" fill="white" fill-opacity="0.2"/>
</g>
<g filter="url(#filter2_b_726_2145)">
<path d="M38.7499 54.2837C38.7444 54.2837 38.739 54.2837 38.7333 54.2837C37.8999 54.2748 37.2315 53.5921 37.2403 52.7587C37.3001 47.1769 43.0466 41.49 48.627 41.49C49.4606 41.49 50.136 42.1656 50.136 42.999C50.136 43.8324 49.4604 44.508 48.627 44.508C44.6804 44.508 40.3005 48.8429 40.2583 52.7908C40.2497 53.6187 39.5757 54.2837 38.7499 54.2837Z" fill="white" fill-opacity="0.2"/>
</g>
<g filter="url(#filter3_b_726_2145)">
<path d="M42.0089 70.5561C38.6124 70.5561 35.1493 69.2975 33.0946 66.9045C32.5516 66.2723 32.6243 65.3193 33.2565 64.7764C33.8889 64.2332 34.8419 64.3063 35.3846 64.9383C37.9631 67.9412 44.1147 68.4619 47.1391 65.933C47.7782 65.3984 48.7299 65.483 49.2647 66.1225C49.7993 66.7617 49.7147 67.7135 49.0753 68.248C47.2128 69.8057 44.6307 70.5561 42.0089 70.5561Z" fill="white" fill-opacity="0.2"/>
</g>
<g filter="url(#filter4_b_726_2145)">
<path d="M64.7687 60.9742C64.4515 60.9742 64.132 60.8746 63.8597 60.6687C63.1951 60.1662 63.0634 59.2197 63.5662 58.5549C66.7838 54.3002 68.4896 46.2139 67.1449 41.5894C66.9123 40.7891 67.3724 39.9517 68.1728 39.7191C68.9732 39.4863 69.8105 39.9467 70.0433 40.7469C71.665 46.325 69.8015 55.3137 65.9738 60.3754C65.6769 60.7676 65.2254 60.9742 64.7687 60.9742Z" fill="white" fill-opacity="0.2"/>
</g>
<g filter="url(#filter5_b_726_2145)">
<path d="M70.794 64.0258C70.5579 64.0258 70.3182 63.9704 70.0946 63.8532C69.3563 63.4664 69.0717 62.5543 69.4583 61.816C70.5409 59.75 69.2395 55.8 67.0983 54.6524C66.3635 54.2586 66.0874 53.344 66.4811 52.6094C66.8749 51.8748 67.7891 51.5981 68.5241 51.9922C72.1245 53.9221 73.9788 59.6916 72.1317 63.2168C71.8622 63.7315 71.3374 64.0258 70.794 64.0258Z" fill="white" fill-opacity="0.2"/>
</g>
<g filter="url(#filter6_b_726_2145)">
<path d="M76.6238 85.8589C75.9576 85.8589 75.3476 85.4142 75.1669 84.7398C74.132 80.874 68.1345 77.5162 64.1023 78.5453C63.2943 78.7513 62.473 78.264 62.2669 77.4562C62.0609 76.6488 62.5484 75.8269 63.3556 75.6208C65.9345 74.9626 69.2273 75.5333 72.1642 77.148C75.2154 78.8253 77.3722 81.3078 78.0824 83.9591C78.298 84.7642 77.8201 85.5916 77.015 85.8072C76.8843 85.8421 76.7531 85.8589 76.6238 85.8589Z" fill="white" fill-opacity="0.2"/>
</g>
<g filter="url(#filter7_b_726_2145)">
<path d="M60.8166 84.6713C59.9735 84.6713 59.1659 84.5477 58.4221 84.2965C57.6325 84.0299 57.2086 83.1734 57.4752 82.384C57.7416 81.5943 58.5983 81.1707 59.3877 81.4369C62.217 82.3926 66.9522 79.9771 67.9756 77.0576C68.2516 76.2711 69.1123 75.8566 69.8991 76.1328C70.6854 76.4084 71.0996 77.2695 70.8239 78.0561C70.1 80.1211 68.2153 82.108 65.7823 83.3713C64.1287 84.2297 62.4092 84.6713 60.8166 84.6713Z" fill="white" fill-opacity="0.2"/>
</g>
</g>
<defs>
<filter id="filter0_b_726_2145" x="23.0537" y="49.4841" width="34.9072" height="32.5439" filterUnits="userSpaceOnUse" color-interpolation-filters="sRGB">
<feFlood flood-opacity="0" result="BackgroundImageFix"/>
<feGaussianBlur in="BackgroundImageFix" stdDeviation="2"/>
<feComposite in2="SourceAlpha" operator="in" result="effect1_backgroundBlur_726_2145"/>
<feBlend mode="normal" in="SourceGraphic" in2="effect1_backgroundBlur_726_2145" result="shape"/>
</filter>
<filter id="filter1_b_726_2145" x="22.5801" y="41.0834" width="24.1484" height="24.0221" filterUnits="userSpaceOnUse" color-interpolation-filters="sRGB">
<feFlood flood-opacity="0" result="BackgroundImageFix"/>
<feGaussianBlur in="BackgroundImageFix" stdDeviation="2"/>
<feComposite in2="SourceAlpha" operator="in" result="effect1_backgroundBlur_726_2145"/>
<feBlend mode="normal" in="SourceGraphic" in2="effect1_backgroundBlur_726_2145" result="shape"/>
</filter>
<filter id="filter2_b_726_2145" x="33.2402" y="37.49" width="20.8955" height="20.7937" filterUnits="userSpaceOnUse" color-interpolation-filters="sRGB">
<feFlood flood-opacity="0" result="BackgroundImageFix"/>
<feGaussianBlur in="BackgroundImageFix" stdDeviation="2"/>
<feComposite in2="SourceAlpha" operator="in" result="effect1_backgroundBlur_726_2145"/>
<feBlend mode="normal" in="SourceGraphic" in2="effect1_backgroundBlur_726_2145" result="shape"/>
</filter>
<filter id="filter3_b_726_2145" x="28.7305" y="60.4122" width="24.8857" height="14.1438" filterUnits="userSpaceOnUse" color-interpolation-filters="sRGB">
<feFlood flood-opacity="0" result="BackgroundImageFix"/>
<feGaussianBlur in="BackgroundImageFix" stdDeviation="2"/>
<feComposite in2="SourceAlpha" operator="in" result="effect1_backgroundBlur_726_2145"/>
<feBlend mode="normal" in="SourceGraphic" in2="effect1_backgroundBlur_726_2145" result="shape"/>
</filter>
<filter id="filter4_b_726_2145" x="59.2607" y="35.6587" width="15.3691" height="29.3156" filterUnits="userSpaceOnUse" color-interpolation-filters="sRGB">
<feFlood flood-opacity="0" result="BackgroundImageFix"/>
<feGaussianBlur in="BackgroundImageFix" stdDeviation="2"/>
<feComposite in2="SourceAlpha" operator="in" result="effect1_backgroundBlur_726_2145"/>
<feBlend mode="normal" in="SourceGraphic" in2="effect1_backgroundBlur_726_2145" result="shape"/>
</filter>
<filter id="filter5_b_726_2145" x="62.3018" y="47.8127" width="14.5547" height="20.2131" filterUnits="userSpaceOnUse" color-interpolation-filters="sRGB">
<feFlood flood-opacity="0" result="BackgroundImageFix"/>
<feGaussianBlur in="BackgroundImageFix" stdDeviation="2"/>
<feComposite in2="SourceAlpha" operator="in" result="effect1_backgroundBlur_726_2145"/>
<feBlend mode="normal" in="SourceGraphic" in2="effect1_backgroundBlur_726_2145" result="shape"/>
</filter>
<filter id="filter6_b_726_2145" x="58.2197" y="71.3528" width="23.9141" height="18.5061" filterUnits="userSpaceOnUse" color-interpolation-filters="sRGB">
<feFlood flood-opacity="0" result="BackgroundImageFix"/>
<feGaussianBlur in="BackgroundImageFix" stdDeviation="2"/>
<feComposite in2="SourceAlpha" operator="in" result="effect1_backgroundBlur_726_2145"/>
<feBlend mode="normal" in="SourceGraphic" in2="effect1_backgroundBlur_726_2145" result="shape"/>
</filter>
<filter id="filter7_b_726_2145" x="53.3955" y="72.0472" width="21.5137" height="16.624" filterUnits="userSpaceOnUse" color-interpolation-filters="sRGB">
<feFlood flood-opacity="0" result="BackgroundImageFix"/>
<feGaussianBlur in="BackgroundImageFix" stdDeviation="2"/>
<feComposite in2="SourceAlpha" operator="in" result="effect1_backgroundBlur_726_2145"/>
<feBlend mode="normal" in="SourceGraphic" in2="effect1_backgroundBlur_726_2145" result="shape"/>
</filter>
<linearGradient id="paint0_linear_726_2145" x1="13.1855" y1="23.9252" x2="38.4051" y2="23.9833" gradientUnits="userSpaceOnUse">
<stop stop-color="#FF7070"/>
<stop offset="1" stop-color="#FF7070" stop-opacity="0.65"/>
</linearGradient>
<linearGradient id="paint1_linear_726_2145" x1="18.6221" y1="46.6667" x2="85.1795" y2="46.8692" gradientUnits="userSpaceOnUse">
<stop stop-color="#FF7070"/>
<stop offset="1" stop-color="#FF7070" stop-opacity="0.65"/>
</linearGradient>
<clipPath id="clip0_726_2145">
<rect width="100" height="100" fill="white"/>
</clipPath>
</defs>
</svg>
