<svg width="40" height="40" viewBox="0 0 40 40" fill="none" xmlns="http://www.w3.org/2000/svg">
<path fill-rule="evenodd" clip-rule="evenodd" d="M15.2368 4.20307L16.8979 3.34909L17.991 5.05968C19.4678 4.62288 21.1355 5.16122 21.9464 6.42111L26.9876 14.253C27.916 15.6955 27.3697 17.5374 25.7675 18.3672L24.8218 18.857L25.5765 20.1749L22.5961 21.5469L21.9171 20.3612L21.1734 20.7463C19.5711 21.5761 17.5196 21.0795 16.5913 19.637L13.3345 14.5773C10.4778 16.0619 8.50778 17.7195 7.4511 19.6152C6.56172 21.2106 6.26935 23.0654 6.76136 25.2922C8.35763 24.4949 10.1933 24.0411 12.1464 24.0411C15.791 24.0411 19.027 25.6214 21.0608 28.0651L34.5324 21.2058L35.639 22.9543L22.2163 29.7886C22.9065 31.0986 23.2928 32.5645 23.2928 34.112C23.2928 34.8018 23.216 35.4754 23.0699 36.1262H37.7832C38.3988 36.1262 38.8978 36.577 38.8978 37.1333C38.8978 37.6895 38.3988 38.1404 37.7832 38.1404H1.92748C1.33094 36.9068 1 35.5443 1 34.112C1 31.0954 2.46799 28.3885 4.79379 26.5427C3.94509 23.5946 4.18622 20.9945 5.46001 18.7092C6.7812 16.339 9.1449 14.4324 12.2138 12.8362L11.5501 11.805C10.8367 10.6968 10.994 9.35264 11.8319 8.41303L10.6489 6.5617L12.3301 5.69743L10.9466 3.45422L13.8781 2L15.2368 4.20307ZM25.0535 15.2547L20.0123 7.42266C19.7029 6.94187 19.0191 6.77631 18.4849 7.05295L13.8909 9.4321C13.3568 9.70865 13.1748 10.3227 13.4842 10.8035L18.5254 18.6354C18.8348 19.1163 19.5186 19.2818 20.0528 19.0052L24.6468 16.626C25.1809 16.3495 25.3629 15.7355 25.0535 15.2547ZM20.7832 36.1262C20.966 35.4837 21.0635 34.8091 21.0635 34.112C21.0635 32.9239 20.779 31.796 20.2679 30.7807L14.9132 33.5071L13.8067 31.7586L19.0973 29.0648C17.4629 27.2297 14.9564 26.0553 12.1464 26.0553C7.22159 26.0553 3.22928 29.6624 3.22928 34.112C3.22928 34.8091 3.32678 35.4837 3.50965 36.1262H20.7832Z" fill="#045AB5" fill-opacity="0.8"/>
</svg>
