<svg width="100" height="70" viewBox="0 0 100 70" fill="none" xmlns="http://www.w3.org/2000/svg">
<path d="M100 4.25537V65.7174C100 68.0675 98.0949 69.9728 95.7446 69.9728H4.25537C1.90528 69.9728 0 68.0677 0 65.7174V4.25537C0 1.90528 1.90509 0 4.25537 0H95.7446C98.0949 0 100 1.90528 100 4.25537Z" fill="url(#paint0_linear_726_2182)"/>
<path d="M50.0005 57.8282C62.6175 57.8282 72.8457 47.6001 72.8457 34.983C72.8457 22.366 62.6175 12.1378 50.0005 12.1378C37.3834 12.1378 27.1553 22.366 27.1553 34.983C27.1553 47.6001 37.3834 57.8282 50.0005 57.8282Z" fill="white" fill-opacity="0.2"/>
<path d="M65.3352 32.6695V37.3077C65.3352 38.4829 64.3827 39.4354 63.2075 39.4354H54.4415V48.1906C54.4415 49.3658 53.489 50.3183 52.3139 50.3183H47.6754C46.5003 50.3183 45.5478 49.3658 45.5478 48.1906V39.4354H36.7927C35.6176 39.4354 34.665 38.4829 34.665 37.3077V32.6695C34.665 31.4943 35.6176 30.5418 36.7927 30.5418H45.5479V21.7756C45.5479 20.6005 46.5005 19.6479 47.6756 19.6479H52.3141C53.4892 19.6479 54.4417 20.6005 54.4417 21.7756V30.5418H63.2077C64.3827 30.5418 65.3352 31.4943 65.3352 32.6695Z" fill="white"/>
<defs>
<linearGradient id="paint0_linear_726_2182" x1="-5.36134e-07" y1="32.654" x2="97.6013" y2="33.2764" gradientUnits="userSpaceOnUse">
<stop stop-color="#FF7070"/>
<stop offset="1" stop-color="#FF7070" stop-opacity="0.65"/>
</linearGradient>
</defs>
</svg>
