<svg width="100" height="100" viewBox="0 0 100 100" fill="none" xmlns="http://www.w3.org/2000/svg">
<g clip-path="url(#clip0_726_2219)">
<path d="M8.75488 98.7832V58.2879C8.75488 55.1451 11.3025 52.5975 14.4453 52.5975C15.015 52.5975 15.5709 52.7744 16.0357 53.1039L18.0811 54.5533C19.3201 55.4314 21.0361 55.1393 21.9148 53.9008C22.7719 52.693 24.4314 52.3805 25.6689 53.1939L26.8488 53.9693C27.4117 54.3393 28.0908 54.4898 28.7572 54.3926C45.6715 51.9215 57.5356 36.4215 55.5041 19.4488L55.4762 19.2146C55.1846 16.7789 54.433 14.4301 53.3521 12.2279C50.9832 7.40137 53.057 2.93516 54.241 1.00488C54.6242 0.380078 55.3029 0 56.0357 0H63.7955C63.8371 0 63.8541 0.0517578 63.8221 0.0783203C63.7656 0.124805 63.71 0.171484 63.6555 0.218164C59.3545 3.91191 61.8945 10.9947 67.5574 11.266C79.3959 11.8332 89.1172 20.8203 90.6104 32.5777L90.892 34.7949C93.2561 53.4102 83.5779 71.4818 66.7733 79.8312C59.3856 83.502 50.6438 83.1939 43.5328 79.0123L24.0053 67.5291C20.6967 65.5836 16.5148 67.9053 16.417 71.7422L16.117 98.7967C16.1092 99.4635 15.5666 100 14.9 100H9.97168C9.29961 100 8.75488 99.4553 8.75488 98.7832Z" fill="url(#paint0_linear_726_2219)"/>
<path d="M90.8922 34.7947L90.6105 32.5775C89.2496 21.8609 81.0525 13.4472 70.6477 11.6117C78.402 14.9465 84.1121 22.1844 85.2277 30.9697L85.5094 33.1869C87.8734 51.8021 78.1953 69.8736 61.3908 78.2232C56.6439 80.5816 51.3387 81.2949 46.2656 80.3961C52.8049 83.2084 60.3078 83.0435 66.7738 79.8308C83.5783 71.4816 93.2563 53.4099 90.8922 34.7947Z" fill="#F96464"/>
<path d="M66.8348 49.4715C70.1506 51.5997 73.6711 51.0219 78.0566 50.6848C78.8688 50.6223 82.941 46.3682 83.7154 46.2682C84.2748 42.8243 84.3537 39.2649 83.8988 35.6832L83.617 33.4657C82.5529 25.0862 75.657 18.7112 67.2195 18.3069C67.2018 18.3061 67.184 18.3051 67.166 18.3041C64.7543 18.1791 62.7338 20.0893 62.7822 22.5038C62.8732 27.0506 62.2055 33.9631 58.3105 41.2497C59.1344 41.2487 59.1141 47.4592 60.0924 47.6002C62.4279 47.9373 64.0467 47.6823 66.8348 49.4715Z" fill="#F6F6F6"/>
<g filter="url(#filter0_b_726_2219)">
<path d="M68.8616 44.4062C64.9055 41.8673 61.1014 41.2464 58.311 41.2498C57.3567 43.0349 56.2116 44.8421 54.8333 46.6429C51.9766 50.3752 46.0454 53.8461 40.4387 56.4867C35.4167 58.8521 35.0864 65.8679 39.8715 68.6818C43.7799 70.9802 47.1059 72.9359 47.1059 72.9359C49.7723 74.5039 52.8167 75.3324 55.9096 75.3324C58.5762 75.3322 61.2481 74.705 63.6368 73.5181C74.5071 68.1171 81.8348 57.8463 83.7157 46.2679C78.7602 46.9084 72.7915 46.9285 68.8616 44.4062Z" fill="white" fill-opacity="0.2"/>
</g>
</g>
<defs>
<filter id="filter0_b_726_2219" x="32.4697" y="37.2498" width="55.2461" height="42.0826" filterUnits="userSpaceOnUse" color-interpolation-filters="sRGB">
<feFlood flood-opacity="0" result="BackgroundImageFix"/>
<feGaussianBlur in="BackgroundImageFix" stdDeviation="2"/>
<feComposite in2="SourceAlpha" operator="in" result="effect1_backgroundBlur_726_2219"/>
<feBlend mode="normal" in="SourceGraphic" in2="effect1_backgroundBlur_726_2219" result="shape"/>
</filter>
<linearGradient id="paint0_linear_726_2219" x1="81.9998" y1="-2.49999" x2="12.9643" y2="102.604" gradientUnits="userSpaceOnUse">
<stop stop-color="#FF7070"/>
<stop offset="1" stop-color="#FF7070" stop-opacity="0.65"/>
</linearGradient>
<clipPath id="clip0_726_2219">
<rect width="100" height="100" fill="white"/>
</clipPath>
</defs>
</svg>
