<svg width="20" height="20" viewBox="0 0 20 20" fill="none" xmlns="http://www.w3.org/2000/svg">
<path d="M19.9988 10.2216C20.0109 9.53391 19.9383 8.84619 19.7851 8.17822H10.2031V11.8896H15.8289C15.6152 13.2057 14.861 14.3757 13.7439 15.1345L13.7238 15.2571L16.7524 17.5574L16.9621 17.5771C18.8858 15.8341 19.9988 13.269 19.9988 10.2216Z" fill="#4285F4"/>
<path d="M10.202 20.0001C12.9564 20.0001 15.2713 19.1108 16.961 17.5772L13.7428 15.1307C12.6983 15.8184 11.4603 16.1662 10.2061 16.1306C7.56055 16.1148 5.22152 14.439 4.39883 11.9727L4.27784 11.9845L1.12822 14.3718L1.08789 14.4825C2.81393 17.8697 6.34264 20.004 10.202 20.0001Z" fill="#34A853"/>
<path d="M4.39576 11.9766C4.17396 11.3402 4.05701 10.6723 4.05701 9.9964C4.06104 9.32448 4.17396 8.65651 4.3877 8.01622L4.38366 7.88579L1.19371 5.45898L1.08886 5.50641C-0.362953 8.33241 -0.362953 11.6604 1.08886 14.4864L4.39576 11.9766Z" fill="#FBBC05"/>
<path d="M10.2023 3.8661C11.6662 3.84238 13.0777 4.37596 14.1464 5.35617L17.0258 2.60131C15.1788 0.901759 12.7309 -0.0270664 10.1983 0.00060078C6.33886 0.00060078 2.81015 2.13097 1.08008 5.51427L4.37892 8.02407C5.20967 5.55774 7.55274 3.88191 10.2023 3.8661Z" fill="#EB4335"/>
</svg>
