<svg width="40" height="40" viewBox="0 0 40 40" fill="none" xmlns="http://www.w3.org/2000/svg">
<path d="M7.3329 24.9353C6.74992 24.9353 6.27734 25.3623 6.27734 25.889C6.27734 26.4157 6.74992 26.8427 7.3329 26.8427H22.1107C22.6937 26.8427 23.1662 26.4157 23.1662 25.889C23.1662 25.3623 22.6937 24.9353 22.1107 24.9353H7.3329Z" fill="#045AB5" fill-opacity="0.8"/>
<path d="M6.27734 30.6573C6.27734 30.1306 6.74992 29.7036 7.3329 29.7036H15.7773C16.3603 29.7036 16.8329 30.1306 16.8329 30.6573C16.8329 31.184 16.3603 31.611 15.7773 31.611H7.3329C6.74992 31.611 6.27734 31.184 6.27734 30.6573Z" fill="#045AB5" fill-opacity="0.8"/>
<path fill-rule="evenodd" clip-rule="evenodd" d="M7.33333 5.86111C7.33333 4.28097 8.75105 3 10.5 3H18.9444C20.6934 3 22.1111 4.28097 22.1111 5.86111H25.2778C27.0267 5.86111 28.4444 7.14203 28.4444 8.72222V34.4722C28.4444 36.0524 27.0267 37.3333 25.2778 37.3333H4.16667C2.41777 37.3333 1 36.0524 1 34.4722V8.72222C1 7.14203 2.41777 5.86111 4.16667 5.86111H7.33333ZM3.11111 19.213H9.62526L11.1767 16.8609L13.0926 23.2139L17.3501 18.2593H21.8662C22.4492 18.2593 22.9218 17.8322 22.9218 17.3056C22.9218 16.7788 22.4492 16.3519 21.8662 16.3519H16.3165L14.018 19.0267L11.9074 12.0279L8.42583 17.3056H3.11111V8.72222C3.11111 8.19549 3.5837 7.76852 4.16667 7.76852H7.33333C7.33333 9.34871 8.75105 10.6296 10.5 10.6296H18.9444C20.6934 10.6296 22.1111 9.34871 22.1111 7.76852H25.2778C25.8608 7.76852 26.3333 8.19549 26.3333 8.72222V34.4722C26.3333 34.999 25.8608 35.4259 25.2778 35.4259H4.16667C3.5837 35.4259 3.11111 34.999 3.11111 34.4722V19.213ZM20 5.86111V7.76852C20 8.29525 19.5274 8.72222 18.9444 8.72222H10.5C9.91702 8.72222 9.44444 8.29525 9.44444 7.76852V5.86111C9.44444 5.3344 9.91702 4.90741 10.5 4.90741H18.9444C19.5274 4.90741 20 5.3344 20 5.86111Z" fill="#045AB5" fill-opacity="0.8"/>
<path fill-rule="evenodd" clip-rule="evenodd" d="M35.8337 10.6296C34.0847 10.6296 32.667 11.9106 32.667 13.4907V32.8536L35.8337 37.1453L39.0003 32.8536V13.4907C39.0003 11.9106 37.5826 10.6296 35.8337 10.6296ZM34.7781 13.4907C34.7781 12.964 35.2507 12.537 35.8337 12.537C36.4166 12.537 36.8892 12.964 36.8892 13.4907V15.3982H34.7781V13.4907ZM34.7781 32.276V17.3056H36.8892V32.276L35.8337 33.7066L34.7781 32.276Z" fill="#045AB5" fill-opacity="0.8"/>
</svg>
