<svg width="40" height="40" viewBox="0 0 40 40" fill="none" xmlns="http://www.w3.org/2000/svg">
<path d="M34.4449 6.01562C34.4449 5.46118 33.9474 5.01172 33.3338 5.01172C32.7201 5.01172 32.2227 5.46118 32.2227 6.01562V8.3274L33.5203 10.0861C33.8608 10.5474 34.5507 10.6721 35.0612 10.3646C35.5718 10.057 35.7098 9.43369 35.3694 8.9724L34.4449 7.71943V6.01562Z" fill="#045AB5" fill-opacity="0.8"/>
<path fill-rule="evenodd" clip-rule="evenodd" d="M33.3337 14.0468C37.0155 14.0468 40.0003 11.35 40.0003 8.02339C40.0003 4.69676 37.0155 2 33.3337 2C29.6518 2 26.667 4.69676 26.667 8.02339C26.667 11.35 29.6518 14.0468 33.3337 14.0468ZM33.3337 12.039C35.7882 12.039 37.7781 10.2411 37.7781 8.02339C37.7781 5.80564 35.7882 4.0078 33.3337 4.0078C30.8791 4.0078 28.8892 5.80564 28.8892 8.02339C28.8892 10.2411 30.8791 12.039 33.3337 12.039Z" fill="#045AB5" fill-opacity="0.8"/>
<path fill-rule="evenodd" clip-rule="evenodd" d="M13.4401 11.1408C11.8044 9.66212 9.15156 9.66131 7.51467 11.139L6.73233 11.8452C5.24433 11.4631 3.5795 11.805 2.40781 12.8708C0.678878 14.4435 0.678878 16.9959 2.40781 18.5686L3.33333 19.4105V30.1092H0V32.117H3.38946C2.66915 32.7548 2.22222 33.6437 2.22222 34.6268C2.22222 36.5673 3.96333 38.1404 6.11111 38.1404C8.25889 38.1404 10 36.5673 10 34.6268C10 33.6437 9.55311 32.7548 8.83278 32.117H31.1672C30.4469 32.7548 30 33.6437 30 34.6268C30 36.5673 31.7411 38.1404 33.8889 38.1404C36.0367 38.1404 37.7778 36.5673 37.7778 34.6268C37.7778 33.6437 37.3309 32.7548 36.6106 32.117H40V30.1092H35.5556V27.0972H35.6291C38.0431 27.0972 40 25.3144 40 23.1151C40 20.9158 38.0431 19.133 35.6291 19.133H15.6778C15.5872 19.133 15.5002 19.1002 15.4361 19.0418L15.029 18.6716L15.4383 18.3021C17.0753 16.8243 17.0762 14.4276 15.4403 12.9489L13.4401 11.1408ZM33.3333 30.1092V27.0972H12.3024C11.9703 27.0972 11.6519 26.9772 11.4169 26.7634L5.55556 21.4318V30.1092H33.3333ZM13.463 17.2471L13.8677 16.8818C14.6363 16.1879 14.6368 15.0626 13.8687 14.3683L11.8684 12.5602C11.1002 11.8657 9.85411 11.8653 9.08533 12.5593L8.69589 12.9108L13.463 17.2471ZM35.6291 21.1408H15.6778C14.9924 21.1408 14.3389 20.8928 13.8596 20.4568L7.07522 14.2858C6.21922 13.507 4.84045 13.507 3.98445 14.2858C3.1163 15.0754 3.1163 16.3639 3.98445 17.1537L12.7088 25.0894H35.6291C36.7984 25.0894 37.7778 24.2213 37.7778 23.1151C37.7778 22.0089 36.7983 21.1408 35.6291 21.1408ZM7.77778 34.6268C7.77778 35.4584 7.03156 36.1326 6.11111 36.1326C5.19067 36.1326 4.44444 35.4584 4.44444 34.6268C4.44444 33.7951 5.19067 33.1209 6.11111 33.1209C7.03156 33.1209 7.77778 33.7951 7.77778 34.6268ZM33.8889 36.1326C34.8093 36.1326 35.5556 35.4584 35.5556 34.6268C35.5556 33.7951 34.8093 33.1209 33.8889 33.1209C32.9684 33.1209 32.2222 33.7951 32.2222 34.6268C32.2222 35.4584 32.9684 36.1326 33.8889 36.1326Z" fill="#045AB5" fill-opacity="0.8"/>
</svg>
