<svg width="100" height="100" viewBox="0 0 100 100" fill="none" xmlns="http://www.w3.org/2000/svg">
<g clip-path="url(#clip0_726_2199)">
<path d="M44.2264 0.107056C41.791 0.107056 39.8096 2.0883 39.8096 4.52384V41.1333C39.8096 41.6107 40.042 42.0583 40.4322 42.3331C43.3344 44.3751 45.2279 47.6683 45.6271 51.3689C45.7076 52.1138 46.3363 52.6782 47.0855 52.6782H47.1758C47.9861 52.6782 48.6426 52.0214 48.6426 51.2114V4.52384C48.6428 2.0883 46.6615 0.107056 44.2264 0.107056Z" fill="#CE3043"/>
<path d="M44.2264 0.107056C41.791 0.107056 39.8096 2.0883 39.8096 4.52384V41.1333C39.8096 41.6107 40.042 42.0583 40.4322 42.3331C43.3344 44.3751 45.2279 47.6683 45.6271 51.3689C45.7076 52.1138 46.3363 52.6782 47.0855 52.6782H47.1758C47.9861 52.6782 48.6426 52.0214 48.6426 51.2114V4.52384C48.6428 2.0883 46.6615 0.107056 44.2264 0.107056Z" fill="url(#paint0_linear_726_2199)"/>
<path d="M55.773 0.107056C53.3379 0.107056 51.3564 2.0883 51.3564 4.52384V51.2113C51.3564 52.0214 52.0133 52.6781 52.8232 52.6781H52.9135C53.6627 52.6781 54.2916 52.1134 54.3719 51.3687C54.7711 47.6683 56.6646 44.3749 59.5668 42.333C59.9574 42.0583 60.1896 41.6107 60.1896 41.1331V4.52384C60.1898 2.0883 58.2086 0.107056 55.773 0.107056Z" fill="#CE3043"/>
<path d="M55.773 0.107056C53.3379 0.107056 51.3564 2.0883 51.3564 4.52384V51.2113C51.3564 52.0214 52.0133 52.6781 52.8232 52.6781H52.9135C53.6627 52.6781 54.2916 52.1134 54.3719 51.3687C54.7711 47.6683 56.6646 44.3749 59.5668 42.333C59.9574 42.0583 60.1896 41.6107 60.1896 41.1331V4.52384C60.1898 2.0883 58.2086 0.107056 55.773 0.107056Z" fill="url(#paint1_linear_726_2199)"/>
<path d="M34.1887 37.3931H31.9869C31.3117 37.3931 30.7236 37.8538 30.5625 38.5097C30.2826 39.6479 30.1465 40.7292 30.1465 41.8149C30.1465 42.8718 30.2746 43.9218 30.5387 45.0253C30.6965 45.6854 31.2863 46.1511 31.9652 46.1511H34.1887C37.3299 46.1511 39.8853 49.1477 39.8853 52.8315V95.514C39.8853 97.9285 41.8498 99.8929 44.2642 99.8929C46.6787 99.8929 48.6431 97.9287 48.6431 95.514V52.8315C48.6429 44.3188 42.1588 37.3931 34.1887 37.3931Z" fill="#EF3A47"/>
<path d="M34.1887 37.3931H31.9869C31.3117 37.3931 30.7236 37.8538 30.5625 38.5097C30.2826 39.6479 30.1465 40.7292 30.1465 41.8149C30.1465 42.8718 30.2746 43.9218 30.5387 45.0253C30.6965 45.6854 31.2863 46.1511 31.9652 46.1511H34.1887C37.3299 46.1511 39.8853 49.1477 39.8853 52.8315V95.514C39.8853 97.9285 41.8498 99.8929 44.2642 99.8929C46.6787 99.8929 48.6431 97.9287 48.6431 95.514V52.8315C48.6429 44.3188 42.1588 37.3931 34.1887 37.3931Z" fill="url(#paint2_linear_726_2199)"/>
<path d="M69.4371 38.5097C69.2759 37.8538 68.6879 37.3931 68.0127 37.3931H65.8109C57.8408 37.3931 51.3564 44.3188 51.3564 52.8315V95.514C51.3564 97.9285 53.3209 99.8929 55.7353 99.8929C58.1498 99.8929 60.1142 97.9287 60.1142 95.514V52.8315C60.1142 49.1479 62.6695 46.1511 65.8109 46.1511H68.0343C68.7133 46.1511 69.3031 45.6854 69.4609 45.0253C69.725 43.9218 69.8531 42.872 69.8531 41.8149C69.8531 40.7292 69.717 39.6481 69.4371 38.5097Z" fill="#EF3A47"/>
<path d="M69.4371 38.5097C69.2759 37.8538 68.6879 37.3931 68.0127 37.3931H65.8109C57.8408 37.3931 51.3564 44.3188 51.3564 52.8315V95.514C51.3564 97.9285 53.3209 99.8929 55.7353 99.8929C58.1498 99.8929 60.1142 97.9287 60.1142 95.514V52.8315C60.1142 49.1479 62.6695 46.1511 65.8109 46.1511H68.0343C68.7133 46.1511 69.3031 45.6854 69.4609 45.0253C69.725 43.9218 69.8531 42.872 69.8531 41.8149C69.8531 40.7292 69.717 39.6481 69.4371 38.5097Z" fill="url(#paint3_linear_726_2199)"/>
<path d="M36.131 50.6982C34.631 47.8773 33.08 44.9601 33.08 41.815C33.08 38.6699 34.631 35.7531 36.131 32.932C38.1743 29.0884 40.2876 25.114 38.5409 20.5459C37.2691 17.2197 34.9249 14.7064 31.7617 13.2775C28.8421 11.959 25.3683 11.6184 21.7166 12.2928C16.1959 13.3121 10.797 16.6033 6.9037 21.3222C2.3873 26.7964 0 33.8828 0 41.8152C0 49.7476 2.3873 56.8341 6.9037 62.3079C10.797 67.0268 16.1963 70.3179 21.7166 71.3372C22.9377 71.5628 24.1382 71.6747 25.3054 71.6747C27.6294 71.6747 29.8183 71.2303 31.7619 70.3524C34.9251 68.9235 37.2691 66.4102 38.5411 63.0841C40.2874 58.5159 38.1745 54.5417 36.131 50.6982Z" fill="url(#paint4_linear_726_2199)"/>
<path d="M93.0965 21.3223C89.2034 16.6035 83.8039 13.3125 78.2836 12.2928C74.6315 11.6186 71.1579 11.959 68.2385 13.2776C65.0753 14.7065 62.7313 17.2197 61.4593 20.5459C59.7126 25.1141 61.8259 29.0883 63.8692 32.932C65.3692 35.7529 66.9202 38.6701 66.9202 41.815C66.9202 44.9601 65.3692 47.8771 63.8692 50.6982C61.8257 54.5417 59.7126 58.5162 61.4593 63.0841C62.7311 66.4103 65.0753 68.9235 68.2385 70.3525C70.1823 71.2304 72.371 71.6747 74.695 71.6747C75.8618 71.6747 77.0629 71.5626 78.2838 71.3372C83.8043 70.3179 89.2034 67.0267 93.0967 62.3079C97.6131 56.8339 100 49.7476 100 41.8152C100 33.8828 97.6129 26.7965 93.0965 21.3223Z" fill="url(#paint5_linear_726_2199)"/>
<g filter="url(#filter0_b_726_2199)">
<path d="M34.579 48.8855C34.5693 48.5558 34.5595 48.2097 34.5503 47.8525C34.5454 47.6609 34.5031 47.4718 34.4251 47.2966C33.5077 45.2259 33.0804 43.4841 33.0804 41.8152C33.0804 40.2613 33.4433 38.6687 34.2222 36.8031C34.2859 36.6505 34.3236 36.4882 34.3329 36.3232C34.3863 35.4037 34.5404 30.7126 32.3038 28.6505C31.4658 27.8777 30.3994 27.5562 29.2247 27.7214C25.7246 28.2123 25.5415 31.2865 25.432 33.1232C25.398 33.6939 25.3412 34.6429 25.1689 34.8699C25.1662 34.8708 25.1632 34.8718 25.1593 34.873C24.8601 34.9652 24.0455 34.7822 23.4503 34.6488C22.5656 34.4501 21.6505 34.2451 20.7548 34.3642C19.4388 34.5396 18.5216 35.3839 18.1728 36.7413C17.6404 38.8111 19.4447 40.0808 20.7621 41.0077C21.9601 41.8507 22.7369 42.4493 22.623 43.0644C22.4816 43.8288 21.6261 44.5833 20.799 45.3128C19.4386 46.5126 17.1617 48.5204 19.2191 51.2816C20.0808 52.4384 21.3769 52.9067 22.8701 52.5989C23.9009 52.3866 24.8599 51.8614 25.7058 51.3978C25.8148 51.3382 25.9398 51.2696 26.0671 51.2015C26.7802 53.1954 28.565 54.6062 30.4845 54.6062C30.6001 54.6062 30.7165 54.6011 30.8326 54.5907C31.9872 54.4872 32.9915 53.8702 33.6605 52.8534C34.3185 51.8526 34.6275 50.5173 34.579 48.8855Z" fill="white" fill-opacity="0.4"/>
</g>
<g filter="url(#filter1_b_726_2199)">
<path d="M79.2012 45.3126C78.374 44.5832 77.5184 43.8287 77.3772 43.0644C77.2633 42.4494 78.0403 41.8505 79.2381 41.0076C80.5553 40.0804 82.3596 38.8109 81.8274 36.7412C81.4785 35.3838 80.5613 34.5396 79.2453 34.364C78.3504 34.2443 77.4348 34.45 76.5498 34.6486C75.9545 34.7822 75.1393 34.965 74.8408 34.8728C74.8369 34.8716 74.834 34.8707 74.8313 34.8697C74.6588 34.6427 74.6022 33.6937 74.5682 33.1228C74.4588 31.2861 74.2754 28.2119 70.7754 27.7211C69.6 27.5562 68.5344 27.8771 67.6963 28.6502C65.4598 30.7123 65.6139 35.4033 65.6672 36.3228C65.6768 36.4879 65.7141 36.6502 65.778 36.8029C66.5569 38.6683 66.9198 40.2609 66.9198 41.8148C66.9198 43.4837 66.4924 45.2255 65.575 47.2962C65.4975 47.4714 65.4549 47.6605 65.4498 47.8521C65.4405 48.2095 65.4307 48.5552 65.4209 48.8845C65.3725 50.5169 65.6815 51.8519 66.3397 52.8527C67.0086 53.8695 68.0129 54.4867 69.1676 54.59C69.2842 54.6003 69.4002 54.6054 69.5157 54.6054C71.435 54.6054 73.2198 53.1945 73.9328 51.2007C74.0602 51.2689 74.1854 51.3374 74.2944 51.397C75.1403 51.8605 76.0992 52.3859 77.1301 52.5982C78.6229 52.906 79.9192 52.4378 80.7811 51.281C82.8383 48.5203 80.5615 46.5124 79.2012 45.3126Z" fill="white" fill-opacity="0.4"/>
</g>
</g>
<defs>
<filter id="filter0_b_726_2199" x="14.0771" y="23.6792" width="24.5068" height="34.927" filterUnits="userSpaceOnUse" color-interpolation-filters="sRGB">
<feFlood flood-opacity="0" result="BackgroundImageFix"/>
<feGaussianBlur in="BackgroundImageFix" stdDeviation="2"/>
<feComposite in2="SourceAlpha" operator="in" result="effect1_backgroundBlur_726_2199"/>
<feBlend mode="normal" in="SourceGraphic" in2="effect1_backgroundBlur_726_2199" result="shape"/>
</filter>
<filter id="filter1_b_726_2199" x="61.416" y="23.679" width="24.5068" height="34.9264" filterUnits="userSpaceOnUse" color-interpolation-filters="sRGB">
<feFlood flood-opacity="0" result="BackgroundImageFix"/>
<feGaussianBlur in="BackgroundImageFix" stdDeviation="2"/>
<feComposite in2="SourceAlpha" operator="in" result="effect1_backgroundBlur_726_2199"/>
<feBlend mode="normal" in="SourceGraphic" in2="effect1_backgroundBlur_726_2199" result="shape"/>
</filter>
<linearGradient id="paint0_linear_726_2199" x1="39.8096" y1="24.6403" x2="48.431" y2="24.6467" gradientUnits="userSpaceOnUse">
<stop stop-color="#FF7070"/>
<stop offset="1" stop-color="#FF7070" stop-opacity="0.65"/>
</linearGradient>
<linearGradient id="paint1_linear_726_2199" x1="51.3564" y1="24.6402" x2="59.9781" y2="24.6467" gradientUnits="userSpaceOnUse">
<stop stop-color="#FF7070"/>
<stop offset="1" stop-color="#FF7070" stop-opacity="0.65"/>
</linearGradient>
<linearGradient id="paint2_linear_726_2199" x1="30.1465" y1="66.5597" x2="48.2001" y2="66.5835" gradientUnits="userSpaceOnUse">
<stop stop-color="#FF7070"/>
<stop offset="1" stop-color="#FF7070" stop-opacity="0.65"/>
</linearGradient>
<linearGradient id="paint3_linear_726_2199" x1="51.3564" y1="66.5597" x2="69.4101" y2="66.5835" gradientUnits="userSpaceOnUse">
<stop stop-color="#FF7070"/>
<stop offset="1" stop-color="#FF7070" stop-opacity="0.65"/>
</linearGradient>
<linearGradient id="paint4_linear_726_2199" x1="-2.10109e-07" y1="39.8244" x2="38.2508" y2="39.9364" gradientUnits="userSpaceOnUse">
<stop stop-color="#FF7070"/>
<stop offset="1" stop-color="#FF7070" stop-opacity="0.65"/>
</linearGradient>
<linearGradient id="paint5_linear_726_2199" x1="60.8105" y1="39.8244" x2="99.0616" y2="39.9365" gradientUnits="userSpaceOnUse">
<stop stop-color="#FF7070"/>
<stop offset="1" stop-color="#FF7070" stop-opacity="0.65"/>
</linearGradient>
<clipPath id="clip0_726_2199">
<rect width="100" height="100" fill="white"/>
</clipPath>
</defs>
</svg>
