<svg width="19" height="18" viewBox="0 0 19 18" fill="none" xmlns="http://www.w3.org/2000/svg">
<path d="M15.1533 2.0317L3.24943 6.15201C2.73615 6.32779 2.75021 7.05904 3.27052 7.22076L8.65646 8.88014C8.74451 8.90518 8.82452 8.9527 8.88863 9.01804C8.95273 9.08338 8.99873 9.16429 9.02209 9.25279L10.6815 14.6317C10.8432 15.152 11.5744 15.1661 11.7502 14.6528L15.8705 2.74889C15.9057 2.64887 15.9118 2.54096 15.8883 2.43758C15.8648 2.33421 15.8126 2.23959 15.7376 2.16463C15.6626 2.08967 15.568 2.03742 15.4646 2.0139C15.3613 1.99038 15.2534 1.99655 15.1533 2.0317V2.0317Z" stroke="white" stroke-width="1.5" stroke-linecap="round" stroke-linejoin="round"/>
</svg>
