<svg width="40" height="40" viewBox="0 0 40 40" fill="none" xmlns="http://www.w3.org/2000/svg">
<path fill-rule="evenodd" clip-rule="evenodd" d="M19.3008 25.8733L12.9526 29.1848C10.9491 30.2299 10.2626 32.5446 11.4194 34.3547C12.576 36.1648 15.1378 36.785 17.1413 35.7399L23.4895 32.4284L19.3008 25.8733ZM11.9054 27.5461C8.90011 29.1136 7.87051 32.5856 9.6055 35.3008C11.3406 38.0161 15.1833 38.9463 18.1885 37.3787L25.8972 33.3576C26.1475 33.2269 26.2334 32.9376 26.0888 32.7114L20.3292 23.6981C20.1846 23.4717 19.8644 23.3942 19.614 23.5249L11.9054 27.5461Z" fill="#045AB5" fill-opacity="0.8"/>
<path fill-rule="evenodd" clip-rule="evenodd" d="M21.3765 25.337L28.1782 21.7889C29.9312 20.8745 32.1729 21.4172 33.185 23.0011C34.1971 24.585 33.5964 26.6103 31.8434 27.5247L25.0417 31.0728L21.3765 25.337ZM27.131 20.1502C29.8858 18.7132 33.4082 19.566 34.9987 22.0549C36.5892 24.5439 35.6454 27.7265 32.8906 29.1635L24.7285 33.4212C24.4781 33.5518 24.1578 33.4743 24.0132 33.2481L18.7772 25.0541C18.6327 24.8279 18.7185 24.5386 18.969 24.4079L27.131 20.1502Z" fill="#045AB5" fill-opacity="0.8"/>
<path fill-rule="evenodd" clip-rule="evenodd" d="M26.0888 32.7116C26.2334 32.9378 26.1475 33.2272 25.8972 33.3578L18.1885 37.379C15.1833 38.9466 11.3406 38.0163 9.6055 35.301C7.87051 32.5859 8.90011 29.1139 11.9054 27.5463L19.614 23.5251C19.8644 23.3945 20.1846 23.472 20.3292 23.6983L27.131 20.1502C29.8857 18.7132 33.4082 19.566 34.9987 22.0549C36.5891 24.5439 35.6453 27.7265 32.8906 29.1635L26.0888 32.7116ZM21.3764 25.337L25.0416 31.0728L31.8434 27.5247C33.5964 26.6103 34.197 24.585 33.1849 23.0011C32.1728 21.4172 29.9312 20.8745 28.1782 21.7889L21.3764 25.337ZM17.1413 35.7401C15.1378 36.7853 12.576 36.1651 11.4194 34.3549C10.2626 32.5448 10.9491 30.2301 12.9526 29.185L19.3008 25.8735L23.4895 32.4286L17.1413 35.7401Z" fill="#045AB5" fill-opacity="0.8"/>
<path fill-rule="evenodd" clip-rule="evenodd" d="M26.1066 13.5834C28.5602 15.8004 32.5385 15.8004 34.9922 13.5834C37.446 11.3664 37.446 7.772 34.9922 5.55503C32.5385 3.33806 28.5602 3.33806 26.1066 5.55503C23.6528 7.772 23.6528 11.3664 26.1066 13.5834ZM24.6256 14.9215C27.8972 17.8774 33.2016 17.8774 36.4733 14.9215C39.7449 11.9655 39.7449 7.17289 36.4733 4.21697C33.2016 1.26101 27.8972 1.26101 24.6256 4.21697C21.354 7.17289 21.354 11.9655 24.6256 14.9215Z" fill="#045AB5" fill-opacity="0.8"/>
<path fill-rule="evenodd" clip-rule="evenodd" d="M35.1773 14.7547L24.8105 5.38831L25.9213 4.38477L36.288 13.7511L35.1773 14.7547Z" fill="#045AB5" fill-opacity="0.8"/>
<path fill-rule="evenodd" clip-rule="evenodd" d="M16.1366 18.4655L10.9989 7.18906L4.09692 17.6685L16.1366 18.4655ZM12.9356 6.46875C12.2786 5.0268 10.0817 4.88135 9.19911 6.22139L2.29709 16.7008C1.50091 17.9097 2.3911 19.453 3.94387 19.5557L15.9836 20.3528C17.5363 20.4555 18.666 19.046 18.0733 17.7452L12.9356 6.46875Z" fill="#045AB5" fill-opacity="0.8"/>
</svg>
