<svg width="40" height="40" viewBox="0 0 40 40" fill="none" xmlns="http://www.w3.org/2000/svg">
<path d="M7.96477 7.66667C9.07065 7.66667 9.96709 6.84586 9.96709 5.83333C9.96709 4.82081 9.07065 4 7.96477 4C7.22362 4 6.57657 4.36868 6.23037 4.91667H5.96246C4.30369 4.91667 2.95898 6.14789 2.95898 7.66667V15.9167H4.9613V7.66667C4.9613 7.16041 5.40954 6.75 5.96246 6.75H6.23037C6.57657 7.29798 7.22362 7.66667 7.96477 7.66667Z" fill="#045AB5" fill-opacity="0.8"/>
<path fill-rule="evenodd" clip-rule="evenodd" d="M6.12334 15.9167H4.9618H2.95948C2.40656 15.9167 1.95363 16.328 2.0038 16.8321C2.23656 19.1707 3.35562 21.3727 5.18391 23.0467C6.5246 24.2742 8.17531 25.1525 9.96758 25.6178V27.8333C9.96758 29.0309 10.8036 30.0496 11.9703 30.427C12.0129 34.0638 15.2462 37 19.2283 37C23.237 37 26.4867 34.0246 26.4867 30.3542V26.6875C26.4867 24.789 28.1675 23.25 30.241 23.25C32.3145 23.25 33.9954 24.789 33.9954 26.6875V28.9065C32.8288 29.284 31.9931 30.3027 31.9931 31.5C31.9931 33.0188 33.3377 34.25 34.9965 34.25C36.6553 34.25 38 33.0188 38 31.5C38 30.3027 37.1642 29.284 35.9977 28.9065V26.6875C35.9977 23.7765 33.4203 21.4167 30.241 21.4167C27.0618 21.4167 24.4844 23.7765 24.4844 26.6875V30.3542C24.4844 33.012 22.1311 35.1667 19.2283 35.1667C16.3519 35.1667 14.0152 33.0511 13.9728 30.4267C15.1391 30.049 15.9745 29.0305 15.9745 27.8333V25.6178C17.7668 25.1525 19.4176 24.2742 20.7583 23.0467C22.5866 21.3727 23.7056 19.1707 23.9383 16.8321C23.9886 16.328 23.5356 15.9167 22.9826 15.9167V7.66667C22.9826 6.14789 21.638 4.91667 19.9792 4.91667H19.7113C19.3651 4.36868 18.718 4 17.9768 4C16.871 4 15.9745 4.82081 15.9745 5.83333C15.9745 6.84586 16.871 7.66667 17.9768 7.66667C18.718 7.66667 19.3651 7.29798 19.7113 6.75H19.9792C20.5321 6.75 20.9803 7.16041 20.9803 7.66667V15.9167H19.8189C19.2659 15.9167 18.8264 16.33 18.7322 16.8289C18.528 17.91 17.964 18.9157 17.1052 19.702C16.0089 20.7059 14.5218 21.2699 12.9711 21.2699C11.4205 21.2699 9.93334 20.7059 8.83688 19.702C7.97818 18.9157 7.41413 17.91 7.20989 16.8289C7.11569 16.33 6.67618 15.9167 6.12334 15.9167ZM20.5603 17.75H21.7562C21.3821 19.253 20.5519 20.6429 19.3424 21.7503C17.6527 23.2975 15.3608 24.1667 12.9711 24.1667C10.5814 24.1667 8.28954 23.2975 6.59979 21.7503C5.39026 20.6429 4.5601 19.253 4.18592 17.75H5.38181C5.73293 18.9683 6.43109 20.0919 7.42104 20.9983C8.89304 22.3461 10.8895 23.1032 12.9711 23.1032C15.0528 23.1032 17.0492 22.3461 18.5212 20.9983C19.5111 20.0919 20.2092 18.9683 20.5603 17.75ZM34.9965 30.5833C35.5495 30.5833 35.9977 30.9937 35.9977 31.5C35.9977 32.0063 35.5495 32.4167 34.9965 32.4167C34.4436 32.4167 33.9954 32.0063 33.9954 31.5C33.9954 30.9937 34.4436 30.5833 34.9965 30.5833ZM13.9722 26V27.8333C13.9722 28.3396 13.524 28.75 12.9711 28.75C12.4181 28.75 11.9699 28.3396 11.9699 27.8333V26H13.9722Z" fill="#045AB5" fill-opacity="0.8"/>
</svg>
