<svg width="40" height="40" viewBox="0 0 40 40" fill="none" xmlns="http://www.w3.org/2000/svg">
<path fill-rule="evenodd" clip-rule="evenodd" d="M19.9424 30.9123C20.7487 30.9123 21.4992 31.1278 22.1273 31.4986L23.9439 2L24.9424 2.05019L25.9408 2L27.7574 31.4986C28.3856 31.1278 29.1361 30.9123 29.9424 30.9123C32.1515 30.9123 33.9424 32.5304 33.9424 34.5263C33.9424 36.5223 32.1515 38.1404 29.9424 38.1404C27.7433 38.1404 25.9587 36.537 25.9425 34.5536L25.7189 30.9233H24.1658L23.9423 34.5536C23.926 36.537 22.1414 38.1404 19.9424 38.1404C17.7332 38.1404 15.9424 36.5223 15.9424 34.5263C15.9424 32.5304 17.7332 30.9123 19.9424 30.9123ZM24.9424 18.3136L25.6076 29.1163H24.2771L24.9424 18.3136ZM24.9424 15.5841C25.4947 15.5841 25.9424 15.1801 25.9424 14.6818C25.9424 14.1835 25.4947 13.7796 24.9424 13.7796C24.3901 13.7796 23.9424 14.1835 23.9424 14.6818C23.9424 15.1801 24.3901 15.5841 24.9424 15.5841ZM19.9424 32.7193C18.8378 32.7193 17.9424 33.5283 17.9424 34.5263C17.9424 35.5243 18.8378 36.3333 19.9424 36.3333C21.047 36.3333 21.9424 35.5243 21.9424 34.5263C21.9424 33.5283 21.047 32.7193 19.9424 32.7193ZM27.9424 34.5263C27.9424 33.5283 28.8378 32.7193 29.9424 32.7193C31.047 32.7193 31.9424 33.5283 31.9424 34.5263C31.9424 35.5243 31.047 36.3333 29.9424 36.3333C28.8378 36.3333 27.9424 35.5243 27.9424 34.5263Z" fill="#045AB5" fill-opacity="0.8"/>
<path fill-rule="evenodd" clip-rule="evenodd" d="M11.9423 2.21118L10.4278 3.0322L10.9423 3.80695C10.4278 3.0322 10.4264 3.03296 10.4264 3.03296L10.4249 3.03377L10.4217 3.03553L10.4143 3.03962L10.3959 3.05005C10.382 3.05803 10.3649 3.06808 10.3448 3.08029C10.3047 3.10474 10.2526 3.13788 10.1901 3.18061C10.0652 3.26607 9.89908 3.38975 9.70478 3.55858C9.31558 3.89673 8.81628 4.41354 8.30928 5.16263C7.29298 6.66461 6.26748 9.06835 6.00598 12.7818C5.9263 13.9135 6.65088 14.8673 7.68478 15.3014C7.22638 15.7109 6.94228 16.2793 6.94228 16.9078V35.8815C6.94228 37.129 8.06158 38.1403 9.44228 38.1403C10.823 38.1403 11.9423 37.129 11.9423 35.8815V16.9078C11.9423 16.1005 11.4735 15.3921 10.7684 14.9927C11.4822 14.4972 11.9423 13.7182 11.9423 12.842V2.21118ZM8.00198 12.8965C8.23828 9.54089 9.13408 7.45234 9.94228 6.21562V12.842C9.94228 13.341 9.49458 13.7455 8.94228 13.7455C8.37368 13.7455 7.97108 13.3354 8.00198 12.8965ZM9.94228 16.9853V16.9078C9.94228 16.6584 9.71838 16.4561 9.44228 16.4561C9.16608 16.4561 8.94228 16.6584 8.94228 16.9078V17.8889L9.94228 16.9853ZM9.94228 19.5408V20.5994L8.94228 21.5029V20.4443L9.94228 19.5408ZM9.94228 24.2134V23.1549L8.94228 24.0584V25.1169L9.94228 24.2134ZM9.94228 26.7689V35.8815C9.94228 36.131 9.71838 36.3333 9.44228 36.3333C9.16608 36.3333 8.94228 36.131 8.94228 35.8815V27.6724L9.94228 26.7689Z" fill="#045AB5" fill-opacity="0.8"/>
</svg>
